<svg width="79" height="79" viewBox="0 0 79 79" fill="none" xmlns="http://www.w3.org/2000/svg">
<path d="M52.9878 1.58667H26.0122C12.1782 1.58667 0.96344 12.6663 0.96344 26.3337V52.9843C0.96344 66.6516 12.1782 77.7312 26.0122 77.7312H52.9878C66.8219 77.7312 78.0366 66.6516 78.0366 52.9843V26.3337C78.0366 12.6663 66.8219 1.58667 52.9878 1.58667Z" stroke="white"/>
<path fill-rule="evenodd" clip-rule="evenodd" d="M54.5698 54.5472C46.2748 62.7432 32.8236 62.7432 24.5276 54.5472C16.2307 46.3521 16.2307 33.063 24.5276 24.867C32.8226 16.67 46.2748 16.67 54.5698 24.867C62.8657 33.062 62.8657 46.3521 54.5698 54.5472Z" stroke="white" stroke-width="1.575" stroke-linecap="round" stroke-linejoin="round"/>
<path fill-rule="evenodd" clip-rule="evenodd" d="M45.9858 49.8824C45.1425 50.7271 44.1384 51.3986 43.0313 51.8583C41.9243 52.318 40.7361 52.5568 39.5352 52.5609C38.3343 52.565 37.1445 52.3343 36.0343 51.8822C34.924 51.4301 33.9153 50.7654 33.0661 49.9265C32.217 49.0876 31.5442 48.091 31.0866 46.9941C30.6289 45.8972 30.3954 44.7217 30.3996 43.5353C30.4037 42.3489 30.6454 41.175 31.1107 40.0813C31.576 38.9876 32.2557 37.9956 33.1107 37.1625C34.8221 35.4949 37.1315 34.5636 39.5352 34.5718C41.9389 34.58 44.2418 35.527 45.9415 37.2062C47.6412 38.8854 48.5997 41.1606 48.608 43.5353C48.6163 45.9101 47.6737 48.1917 45.9858 49.8824Z" stroke="white" stroke-width="1.575" stroke-linecap="round" stroke-linejoin="round"/>
<path d="M39.5482 40.5251V46.5215" stroke="white" stroke-width="1.575" stroke-linecap="round" stroke-linejoin="round"/>
<path fill-rule="evenodd" clip-rule="evenodd" d="M41.6947 28.6904C41.1236 29.2444 40.3543 29.5531 39.554 29.5495C38.7537 29.5459 37.9872 29.2302 37.4213 28.6711C36.8554 28.112 36.5359 27.3548 36.5322 26.5641C36.5285 25.7735 36.841 25.0134 37.4017 24.4492C37.9728 23.8952 38.7422 23.5865 39.5425 23.5901C40.3428 23.5937 41.1092 23.9094 41.6751 24.4685C42.241 25.0276 42.5606 25.7848 42.5642 26.5755C42.5679 27.3662 42.2554 28.1263 41.6947 28.6904V28.6904Z" stroke="white" stroke-width="1.575" stroke-linecap="round" stroke-linejoin="round"/>
</svg>
