<svg width="79" height="79" viewBox="0 0 79 79" fill="none" xmlns="http://www.w3.org/2000/svg">
<path fill-rule="evenodd" clip-rule="evenodd" d="M26.0122 0.963379H52.9878C66.8215 0.963379 78.0366 12.1785 78.0366 26.0122V52.9878C78.0366 66.8214 66.8215 78.0365 52.9878 78.0365H26.0122C12.1785 78.0365 0.96344 66.8214 0.96344 52.9878V26.0122C0.96344 12.1785 12.1785 0.963379 26.0122 0.963379Z" stroke="#FEFEFE" stroke-width="1.5"/>
<path d="M46.2166 25.3478C44.2329 24.1744 41.9198 23.501 39.4496 23.501C36.9948 23.501 34.6961 24.1648 32.722 25.3238" stroke="#FEFEFE" stroke-width="1.5"/>
<path d="M51.1645 20.7575C47.8735 18.3461 43.8136 16.9231 39.4224 16.9231C35.0726 16.9231 31.0484 18.3191 27.7747 20.6881" stroke="#FEFEFE" stroke-width="1.5"/>
<path fill-rule="evenodd" clip-rule="evenodd" d="M44.525 61.1129H34.4746C29.2539 61.1129 25.0216 56.8806 25.0216 51.6589V41.6095C25.0216 36.3888 29.2539 32.1555 34.4746 32.1555H44.525C49.7467 32.1555 53.979 36.3888 53.979 41.6095V51.6589C53.979 56.8806 49.7467 61.1129 44.525 61.1129Z" stroke="#FEFEFE" stroke-width="1.5"/>
<path fill-rule="evenodd" clip-rule="evenodd" d="M35.2709 46.6344C35.2709 44.2981 37.164 42.4041 39.5003 42.4041C41.8356 42.4041 43.7297 44.2981 43.7297 46.6344C43.7297 48.9707 41.8356 50.8648 39.5003 50.8648C37.164 50.8648 35.2709 48.9707 35.2709 46.6344Z" stroke="#FEFEFE" stroke-width="1.5"/>
</svg>
