<svg width="79" height="79" viewBox="0 0 79 79" fill="none" xmlns="http://www.w3.org/2000/svg">
<path d="M52.9878 1.58667H26.0122C12.1782 1.58667 0.96344 12.6663 0.96344 26.3337V52.9843C0.96344 66.6516 12.1782 77.7312 26.0122 77.7312H52.9878C66.8219 77.7312 78.0366 66.6516 78.0366 52.9843V26.3337C78.0366 12.6663 66.8219 1.58667 52.9878 1.58667Z" fill="black" stroke="white"/>
<path d="M31.0923 52.4778H47.1206" stroke="white" stroke-width="1.575" stroke-linecap="round" stroke-linejoin="round"/>
<path d="M33.3813 56.4766H44.8306" stroke="white" stroke-width="1.575" stroke-linecap="round" stroke-linejoin="round"/>
<path d="M42.5405 60.4731H35.6714" stroke="white" stroke-width="1.575" stroke-linecap="round" stroke-linejoin="round"/>
<path d="M47.0532 48.4804C47.0532 46.3293 47.5908 44.2115 48.6217 42.3126L52.0109 36.0497C52.0302 36.0126 52.0524 35.9784 52.0707 35.9412L52.0919 35.9003H52.0842C52.7932 34.4101 53.1619 32.7841 53.1642 31.1375C53.1642 24.2797 46.8702 18.7192 39.106 18.7192C31.3428 18.7192 25.0488 24.2797 25.0488 31.1375C25.0488 32.8269 25.4371 34.4326 26.1279 35.9003H26.1221L26.1433 35.9412C26.1606 35.9784 26.1837 36.0145 26.204 36.0516L29.5923 42.3117C30.6208 44.2091 31.1592 46.328 31.1598 48.4804" stroke="white" stroke-width="1.575" stroke-linecap="round" stroke-linejoin="round"/>
</svg>
